<mxfile host="app.diagrams.net" modified="2023-08-22T19:18:08.866Z" agent="Mozilla/5.0 (Windows NT 10.0; Win64; x64) AppleWebKit/537.36 (KHTML, like Gecko) Chrome/116.0.0.0 Safari/537.36" etag="zlvkkAeKs5s7ZYmQyVvu" version="21.6.8" type="github">
  <diagram id="R2lEEEUBdFMjLlhIrx00" name="Page-1">
    <mxGraphModel dx="3164" dy="2250" grid="1" gridSize="10" guides="1" tooltips="1" connect="1" arrows="1" fold="1" page="1" pageScale="1" pageWidth="850" pageHeight="1100" math="0" shadow="0" extFonts="Permanent Marker^https://fonts.googleapis.com/css?family=Permanent+Marker">
      <root>
        <mxCell id="0" />
        <mxCell id="1" parent="0" />
        <mxCell id="zF8jvgZApvR6IqkMXMVD-21" value="&amp;nbsp; &amp;nbsp; &amp;nbsp; &amp;nbsp; &amp;nbsp; &amp;nbsp;&amp;nbsp;" style="text;html=1;align=center;verticalAlign=middle;resizable=0;points=[];autosize=1;strokeColor=none;fillColor=none;" vertex="1" parent="1">
          <mxGeometry x="25" y="28" width="60" height="30" as="geometry" />
        </mxCell>
        <mxCell id="zF8jvgZApvR6IqkMXMVD-22" value="" style="shape=table;startSize=0;container=1;collapsible=0;childLayout=tableLayout;" vertex="1" parent="1">
          <mxGeometry x="70" y="200" width="290" height="60" as="geometry" />
        </mxCell>
        <mxCell id="zF8jvgZApvR6IqkMXMVD-23" value="" style="shape=tableRow;horizontal=0;startSize=0;swimlaneHead=0;swimlaneBody=0;strokeColor=inherit;top=0;left=0;bottom=0;right=0;collapsible=0;dropTarget=0;fillColor=none;points=[[0,0.5],[1,0.5]];portConstraint=eastwest;" vertex="1" parent="zF8jvgZApvR6IqkMXMVD-22">
          <mxGeometry width="290" height="30" as="geometry" />
        </mxCell>
        <mxCell id="zF8jvgZApvR6IqkMXMVD-24" value="&lt;u&gt;actorID&lt;/u&gt;" style="shape=partialRectangle;html=1;whiteSpace=wrap;connectable=0;strokeColor=inherit;overflow=hidden;fillColor=none;top=0;left=0;bottom=0;right=0;pointerEvents=1;" vertex="1" parent="zF8jvgZApvR6IqkMXMVD-23">
          <mxGeometry width="97" height="30" as="geometry">
            <mxRectangle width="97" height="30" as="alternateBounds" />
          </mxGeometry>
        </mxCell>
        <mxCell id="zF8jvgZApvR6IqkMXMVD-25" value="name" style="shape=partialRectangle;html=1;whiteSpace=wrap;connectable=0;strokeColor=inherit;overflow=hidden;fillColor=none;top=0;left=0;bottom=0;right=0;pointerEvents=1;" vertex="1" parent="zF8jvgZApvR6IqkMXMVD-23">
          <mxGeometry x="97" width="96" height="30" as="geometry">
            <mxRectangle width="96" height="30" as="alternateBounds" />
          </mxGeometry>
        </mxCell>
        <mxCell id="zF8jvgZApvR6IqkMXMVD-26" value="age" style="shape=partialRectangle;html=1;whiteSpace=wrap;connectable=0;strokeColor=inherit;overflow=hidden;fillColor=none;top=0;left=0;bottom=0;right=0;pointerEvents=1;" vertex="1" parent="zF8jvgZApvR6IqkMXMVD-23">
          <mxGeometry x="193" width="97" height="30" as="geometry">
            <mxRectangle width="97" height="30" as="alternateBounds" />
          </mxGeometry>
        </mxCell>
        <mxCell id="zF8jvgZApvR6IqkMXMVD-27" value="" style="shape=tableRow;horizontal=0;startSize=0;swimlaneHead=0;swimlaneBody=0;strokeColor=inherit;top=0;left=0;bottom=0;right=0;collapsible=0;dropTarget=0;fillColor=none;points=[[0,0.5],[1,0.5]];portConstraint=eastwest;" vertex="1" parent="zF8jvgZApvR6IqkMXMVD-22">
          <mxGeometry y="30" width="290" height="30" as="geometry" />
        </mxCell>
        <mxCell id="zF8jvgZApvR6IqkMXMVD-28" value="INT" style="shape=partialRectangle;html=1;whiteSpace=wrap;connectable=0;strokeColor=inherit;overflow=hidden;fillColor=none;top=0;left=0;bottom=0;right=0;pointerEvents=1;" vertex="1" parent="zF8jvgZApvR6IqkMXMVD-27">
          <mxGeometry width="97" height="30" as="geometry">
            <mxRectangle width="97" height="30" as="alternateBounds" />
          </mxGeometry>
        </mxCell>
        <mxCell id="zF8jvgZApvR6IqkMXMVD-29" value="VARCHAR(30)" style="shape=partialRectangle;html=1;whiteSpace=wrap;connectable=0;strokeColor=inherit;overflow=hidden;fillColor=none;top=0;left=0;bottom=0;right=0;pointerEvents=1;" vertex="1" parent="zF8jvgZApvR6IqkMXMVD-27">
          <mxGeometry x="97" width="96" height="30" as="geometry">
            <mxRectangle width="96" height="30" as="alternateBounds" />
          </mxGeometry>
        </mxCell>
        <mxCell id="zF8jvgZApvR6IqkMXMVD-30" value="INT" style="shape=partialRectangle;html=1;whiteSpace=wrap;connectable=0;strokeColor=inherit;overflow=hidden;fillColor=none;top=0;left=0;bottom=0;right=0;pointerEvents=1;" vertex="1" parent="zF8jvgZApvR6IqkMXMVD-27">
          <mxGeometry x="193" width="97" height="30" as="geometry">
            <mxRectangle width="97" height="30" as="alternateBounds" />
          </mxGeometry>
        </mxCell>
        <mxCell id="zF8jvgZApvR6IqkMXMVD-31" value="Actors" style="text;html=1;align=center;verticalAlign=middle;resizable=0;points=[];autosize=1;strokeColor=none;fillColor=none;" vertex="1" parent="1">
          <mxGeometry x="70" y="170" width="60" height="30" as="geometry" />
        </mxCell>
        <mxCell id="zF8jvgZApvR6IqkMXMVD-32" value="" style="shape=table;startSize=0;container=1;collapsible=0;childLayout=tableLayout;" vertex="1" parent="1">
          <mxGeometry x="480" y="80" width="280" height="60" as="geometry" />
        </mxCell>
        <mxCell id="zF8jvgZApvR6IqkMXMVD-33" value="" style="shape=tableRow;horizontal=0;startSize=0;swimlaneHead=0;swimlaneBody=0;strokeColor=inherit;top=0;left=0;bottom=0;right=0;collapsible=0;dropTarget=0;fillColor=none;points=[[0,0.5],[1,0.5]];portConstraint=eastwest;" vertex="1" parent="zF8jvgZApvR6IqkMXMVD-32">
          <mxGeometry width="280" height="30" as="geometry" />
        </mxCell>
        <mxCell id="zF8jvgZApvR6IqkMXMVD-34" value="&lt;u&gt;movieDirectorID&lt;/u&gt;" style="shape=partialRectangle;html=1;whiteSpace=wrap;connectable=0;strokeColor=inherit;overflow=hidden;fillColor=none;top=0;left=0;bottom=0;right=0;pointerEvents=1;" vertex="1" parent="zF8jvgZApvR6IqkMXMVD-33">
          <mxGeometry width="114" height="30" as="geometry">
            <mxRectangle width="114" height="30" as="alternateBounds" />
          </mxGeometry>
        </mxCell>
        <mxCell id="zF8jvgZApvR6IqkMXMVD-35" value="movieID" style="shape=partialRectangle;html=1;whiteSpace=wrap;connectable=0;strokeColor=inherit;overflow=hidden;fillColor=none;top=0;left=0;bottom=0;right=0;pointerEvents=1;" vertex="1" parent="zF8jvgZApvR6IqkMXMVD-33">
          <mxGeometry x="114" width="83" height="30" as="geometry">
            <mxRectangle width="83" height="30" as="alternateBounds" />
          </mxGeometry>
        </mxCell>
        <mxCell id="zF8jvgZApvR6IqkMXMVD-36" value="directorID" style="shape=partialRectangle;html=1;whiteSpace=wrap;connectable=0;strokeColor=inherit;overflow=hidden;fillColor=none;top=0;left=0;bottom=0;right=0;pointerEvents=1;" vertex="1" parent="zF8jvgZApvR6IqkMXMVD-33">
          <mxGeometry x="197" width="83" height="30" as="geometry">
            <mxRectangle width="83" height="30" as="alternateBounds" />
          </mxGeometry>
        </mxCell>
        <mxCell id="zF8jvgZApvR6IqkMXMVD-37" value="" style="shape=tableRow;horizontal=0;startSize=0;swimlaneHead=0;swimlaneBody=0;strokeColor=inherit;top=0;left=0;bottom=0;right=0;collapsible=0;dropTarget=0;fillColor=none;points=[[0,0.5],[1,0.5]];portConstraint=eastwest;" vertex="1" parent="zF8jvgZApvR6IqkMXMVD-32">
          <mxGeometry y="30" width="280" height="30" as="geometry" />
        </mxCell>
        <mxCell id="zF8jvgZApvR6IqkMXMVD-38" value="INT" style="shape=partialRectangle;html=1;whiteSpace=wrap;connectable=0;strokeColor=inherit;overflow=hidden;fillColor=none;top=0;left=0;bottom=0;right=0;pointerEvents=1;" vertex="1" parent="zF8jvgZApvR6IqkMXMVD-37">
          <mxGeometry width="114" height="30" as="geometry">
            <mxRectangle width="114" height="30" as="alternateBounds" />
          </mxGeometry>
        </mxCell>
        <mxCell id="zF8jvgZApvR6IqkMXMVD-39" value="INT" style="shape=partialRectangle;html=1;whiteSpace=wrap;connectable=0;strokeColor=inherit;overflow=hidden;fillColor=none;top=0;left=0;bottom=0;right=0;pointerEvents=1;" vertex="1" parent="zF8jvgZApvR6IqkMXMVD-37">
          <mxGeometry x="114" width="83" height="30" as="geometry">
            <mxRectangle width="83" height="30" as="alternateBounds" />
          </mxGeometry>
        </mxCell>
        <mxCell id="zF8jvgZApvR6IqkMXMVD-40" value="INT" style="shape=partialRectangle;html=1;whiteSpace=wrap;connectable=0;strokeColor=inherit;overflow=hidden;fillColor=none;top=0;left=0;bottom=0;right=0;pointerEvents=1;" vertex="1" parent="zF8jvgZApvR6IqkMXMVD-37">
          <mxGeometry x="197" width="83" height="30" as="geometry">
            <mxRectangle width="83" height="30" as="alternateBounds" />
          </mxGeometry>
        </mxCell>
        <mxCell id="zF8jvgZApvR6IqkMXMVD-41" value="MoviesDirectors" style="text;html=1;align=center;verticalAlign=middle;resizable=0;points=[];autosize=1;strokeColor=none;fillColor=none;" vertex="1" parent="1">
          <mxGeometry x="480" y="50" width="110" height="30" as="geometry" />
        </mxCell>
        <mxCell id="zF8jvgZApvR6IqkMXMVD-51" value="MoviesActors" style="text;html=1;align=center;verticalAlign=middle;resizable=0;points=[];autosize=1;strokeColor=none;fillColor=none;" vertex="1" parent="1">
          <mxGeometry x="480" y="190" width="100" height="30" as="geometry" />
        </mxCell>
        <mxCell id="zF8jvgZApvR6IqkMXMVD-53" value="" style="endArrow=none;html=1;rounded=0;dashed=1;dashPattern=1 2;" edge="1" parent="1">
          <mxGeometry relative="1" as="geometry">
            <mxPoint x="600" y="100" as="sourcePoint" />
            <mxPoint x="660" y="100" as="targetPoint" />
          </mxGeometry>
        </mxCell>
        <mxCell id="zF8jvgZApvR6IqkMXMVD-55" value="" style="endArrow=none;html=1;rounded=0;dashed=1;dashPattern=1 2;" edge="1" parent="1">
          <mxGeometry relative="1" as="geometry">
            <mxPoint x="670" y="100" as="sourcePoint" />
            <mxPoint x="730" y="100" as="targetPoint" />
            <Array as="points" />
          </mxGeometry>
        </mxCell>
        <mxCell id="zF8jvgZApvR6IqkMXMVD-57" value="" style="shape=table;startSize=0;container=1;collapsible=0;childLayout=tableLayout;" vertex="1" parent="1">
          <mxGeometry x="480" y="220" width="280" height="60" as="geometry" />
        </mxCell>
        <mxCell id="zF8jvgZApvR6IqkMXMVD-58" value="" style="shape=tableRow;horizontal=0;startSize=0;swimlaneHead=0;swimlaneBody=0;strokeColor=inherit;top=0;left=0;bottom=0;right=0;collapsible=0;dropTarget=0;fillColor=none;points=[[0,0.5],[1,0.5]];portConstraint=eastwest;" vertex="1" parent="zF8jvgZApvR6IqkMXMVD-57">
          <mxGeometry width="280" height="30" as="geometry" />
        </mxCell>
        <mxCell id="zF8jvgZApvR6IqkMXMVD-59" value="&lt;u&gt;movieActorID&lt;/u&gt;" style="shape=partialRectangle;html=1;whiteSpace=wrap;connectable=0;strokeColor=inherit;overflow=hidden;fillColor=none;top=0;left=0;bottom=0;right=0;pointerEvents=1;" vertex="1" parent="zF8jvgZApvR6IqkMXMVD-58">
          <mxGeometry width="114" height="30" as="geometry">
            <mxRectangle width="114" height="30" as="alternateBounds" />
          </mxGeometry>
        </mxCell>
        <mxCell id="zF8jvgZApvR6IqkMXMVD-60" value="movieID" style="shape=partialRectangle;html=1;whiteSpace=wrap;connectable=0;strokeColor=inherit;overflow=hidden;fillColor=none;top=0;left=0;bottom=0;right=0;pointerEvents=1;" vertex="1" parent="zF8jvgZApvR6IqkMXMVD-58">
          <mxGeometry x="114" width="83" height="30" as="geometry">
            <mxRectangle width="83" height="30" as="alternateBounds" />
          </mxGeometry>
        </mxCell>
        <mxCell id="zF8jvgZApvR6IqkMXMVD-61" value="actorID" style="shape=partialRectangle;html=1;whiteSpace=wrap;connectable=0;strokeColor=inherit;overflow=hidden;fillColor=none;top=0;left=0;bottom=0;right=0;pointerEvents=1;" vertex="1" parent="zF8jvgZApvR6IqkMXMVD-58">
          <mxGeometry x="197" width="83" height="30" as="geometry">
            <mxRectangle width="83" height="30" as="alternateBounds" />
          </mxGeometry>
        </mxCell>
        <mxCell id="zF8jvgZApvR6IqkMXMVD-62" value="" style="shape=tableRow;horizontal=0;startSize=0;swimlaneHead=0;swimlaneBody=0;strokeColor=inherit;top=0;left=0;bottom=0;right=0;collapsible=0;dropTarget=0;fillColor=none;points=[[0,0.5],[1,0.5]];portConstraint=eastwest;" vertex="1" parent="zF8jvgZApvR6IqkMXMVD-57">
          <mxGeometry y="30" width="280" height="30" as="geometry" />
        </mxCell>
        <mxCell id="zF8jvgZApvR6IqkMXMVD-63" value="INT" style="shape=partialRectangle;html=1;whiteSpace=wrap;connectable=0;strokeColor=inherit;overflow=hidden;fillColor=none;top=0;left=0;bottom=0;right=0;pointerEvents=1;" vertex="1" parent="zF8jvgZApvR6IqkMXMVD-62">
          <mxGeometry width="114" height="30" as="geometry">
            <mxRectangle width="114" height="30" as="alternateBounds" />
          </mxGeometry>
        </mxCell>
        <mxCell id="zF8jvgZApvR6IqkMXMVD-64" value="INT" style="shape=partialRectangle;html=1;whiteSpace=wrap;connectable=0;strokeColor=inherit;overflow=hidden;fillColor=none;top=0;left=0;bottom=0;right=0;pointerEvents=1;" vertex="1" parent="zF8jvgZApvR6IqkMXMVD-62">
          <mxGeometry x="114" width="83" height="30" as="geometry">
            <mxRectangle width="83" height="30" as="alternateBounds" />
          </mxGeometry>
        </mxCell>
        <mxCell id="zF8jvgZApvR6IqkMXMVD-65" value="INT" style="shape=partialRectangle;html=1;whiteSpace=wrap;connectable=0;strokeColor=inherit;overflow=hidden;fillColor=none;top=0;left=0;bottom=0;right=0;pointerEvents=1;" vertex="1" parent="zF8jvgZApvR6IqkMXMVD-62">
          <mxGeometry x="197" width="83" height="30" as="geometry">
            <mxRectangle width="83" height="30" as="alternateBounds" />
          </mxGeometry>
        </mxCell>
        <mxCell id="zF8jvgZApvR6IqkMXMVD-66" value="" style="endArrow=none;html=1;rounded=0;dashed=1;dashPattern=1 2;" edge="1" parent="1">
          <mxGeometry relative="1" as="geometry">
            <mxPoint x="600" y="240" as="sourcePoint" />
            <mxPoint x="660" y="240" as="targetPoint" />
          </mxGeometry>
        </mxCell>
        <mxCell id="zF8jvgZApvR6IqkMXMVD-69" value="" style="endArrow=none;html=1;rounded=0;dashed=1;dashPattern=1 2;" edge="1" parent="1">
          <mxGeometry relative="1" as="geometry">
            <mxPoint x="680" y="240" as="sourcePoint" />
            <mxPoint x="740" y="240" as="targetPoint" />
          </mxGeometry>
        </mxCell>
        <mxCell id="zF8jvgZApvR6IqkMXMVD-70" value="" style="shape=table;startSize=0;container=1;collapsible=0;childLayout=tableLayout;" vertex="1" parent="1">
          <mxGeometry x="70" y="330" width="360" height="60" as="geometry" />
        </mxCell>
        <mxCell id="zF8jvgZApvR6IqkMXMVD-71" value="" style="shape=tableRow;horizontal=0;startSize=0;swimlaneHead=0;swimlaneBody=0;strokeColor=inherit;top=0;left=0;bottom=0;right=0;collapsible=0;dropTarget=0;fillColor=none;points=[[0,0.5],[1,0.5]];portConstraint=eastwest;" vertex="1" parent="zF8jvgZApvR6IqkMXMVD-70">
          <mxGeometry width="360" height="30" as="geometry" />
        </mxCell>
        <mxCell id="zF8jvgZApvR6IqkMXMVD-72" value="&lt;u&gt;movieID&lt;/u&gt;" style="shape=partialRectangle;html=1;whiteSpace=wrap;connectable=0;strokeColor=inherit;overflow=hidden;fillColor=none;top=0;left=0;bottom=0;right=0;pointerEvents=1;" vertex="1" parent="zF8jvgZApvR6IqkMXMVD-71">
          <mxGeometry width="65" height="30" as="geometry">
            <mxRectangle width="65" height="30" as="alternateBounds" />
          </mxGeometry>
        </mxCell>
        <mxCell id="zF8jvgZApvR6IqkMXMVD-73" value="title" style="shape=partialRectangle;html=1;whiteSpace=wrap;connectable=0;strokeColor=inherit;overflow=hidden;fillColor=none;top=0;left=0;bottom=0;right=0;pointerEvents=1;" vertex="1" parent="zF8jvgZApvR6IqkMXMVD-71">
          <mxGeometry x="65" width="95" height="30" as="geometry">
            <mxRectangle width="95" height="30" as="alternateBounds" />
          </mxGeometry>
        </mxCell>
        <mxCell id="zF8jvgZApvR6IqkMXMVD-74" value="duration" style="shape=partialRectangle;html=1;whiteSpace=wrap;connectable=0;strokeColor=inherit;overflow=hidden;fillColor=none;top=0;left=0;bottom=0;right=0;pointerEvents=1;" vertex="1" parent="zF8jvgZApvR6IqkMXMVD-71">
          <mxGeometry x="160" width="56" height="30" as="geometry">
            <mxRectangle width="56" height="30" as="alternateBounds" />
          </mxGeometry>
        </mxCell>
        <mxCell id="zF8jvgZApvR6IqkMXMVD-75" value="genre" style="shape=partialRectangle;html=1;whiteSpace=wrap;connectable=0;strokeColor=inherit;overflow=hidden;fillColor=none;top=0;left=0;bottom=0;right=0;pointerEvents=1;" vertex="1" parent="zF8jvgZApvR6IqkMXMVD-71">
          <mxGeometry x="216" width="89" height="30" as="geometry">
            <mxRectangle width="89" height="30" as="alternateBounds" />
          </mxGeometry>
        </mxCell>
        <mxCell id="zF8jvgZApvR6IqkMXMVD-76" value="year" style="shape=partialRectangle;html=1;whiteSpace=wrap;connectable=0;strokeColor=inherit;overflow=hidden;fillColor=none;top=0;left=0;bottom=0;right=0;pointerEvents=1;" vertex="1" parent="zF8jvgZApvR6IqkMXMVD-71">
          <mxGeometry x="305" width="55" height="30" as="geometry">
            <mxRectangle width="55" height="30" as="alternateBounds" />
          </mxGeometry>
        </mxCell>
        <mxCell id="zF8jvgZApvR6IqkMXMVD-77" value="" style="shape=tableRow;horizontal=0;startSize=0;swimlaneHead=0;swimlaneBody=0;strokeColor=inherit;top=0;left=0;bottom=0;right=0;collapsible=0;dropTarget=0;fillColor=none;points=[[0,0.5],[1,0.5]];portConstraint=eastwest;" vertex="1" parent="zF8jvgZApvR6IqkMXMVD-70">
          <mxGeometry y="30" width="360" height="30" as="geometry" />
        </mxCell>
        <mxCell id="zF8jvgZApvR6IqkMXMVD-78" value="INT" style="shape=partialRectangle;html=1;whiteSpace=wrap;connectable=0;strokeColor=inherit;overflow=hidden;fillColor=none;top=0;left=0;bottom=0;right=0;pointerEvents=1;" vertex="1" parent="zF8jvgZApvR6IqkMXMVD-77">
          <mxGeometry width="65" height="30" as="geometry">
            <mxRectangle width="65" height="30" as="alternateBounds" />
          </mxGeometry>
        </mxCell>
        <mxCell id="zF8jvgZApvR6IqkMXMVD-79" value="VARCHAR(30)" style="shape=partialRectangle;html=1;whiteSpace=wrap;connectable=0;strokeColor=inherit;overflow=hidden;fillColor=none;top=0;left=0;bottom=0;right=0;pointerEvents=1;" vertex="1" parent="zF8jvgZApvR6IqkMXMVD-77">
          <mxGeometry x="65" width="95" height="30" as="geometry">
            <mxRectangle width="95" height="30" as="alternateBounds" />
          </mxGeometry>
        </mxCell>
        <mxCell id="zF8jvgZApvR6IqkMXMVD-80" value="INT" style="shape=partialRectangle;html=1;whiteSpace=wrap;connectable=0;strokeColor=inherit;overflow=hidden;fillColor=none;top=0;left=0;bottom=0;right=0;pointerEvents=1;" vertex="1" parent="zF8jvgZApvR6IqkMXMVD-77">
          <mxGeometry x="160" width="56" height="30" as="geometry">
            <mxRectangle width="56" height="30" as="alternateBounds" />
          </mxGeometry>
        </mxCell>
        <mxCell id="zF8jvgZApvR6IqkMXMVD-81" value="VARCHAR(30)" style="shape=partialRectangle;html=1;whiteSpace=wrap;connectable=0;strokeColor=inherit;overflow=hidden;fillColor=none;top=0;left=0;bottom=0;right=0;pointerEvents=1;" vertex="1" parent="zF8jvgZApvR6IqkMXMVD-77">
          <mxGeometry x="216" width="89" height="30" as="geometry">
            <mxRectangle width="89" height="30" as="alternateBounds" />
          </mxGeometry>
        </mxCell>
        <mxCell id="zF8jvgZApvR6IqkMXMVD-82" value="INT" style="shape=partialRectangle;html=1;whiteSpace=wrap;connectable=0;strokeColor=inherit;overflow=hidden;fillColor=none;top=0;left=0;bottom=0;right=0;pointerEvents=1;" vertex="1" parent="zF8jvgZApvR6IqkMXMVD-77">
          <mxGeometry x="305" width="55" height="30" as="geometry">
            <mxRectangle width="55" height="30" as="alternateBounds" />
          </mxGeometry>
        </mxCell>
        <mxCell id="zF8jvgZApvR6IqkMXMVD-83" value="Movies" style="text;html=1;align=center;verticalAlign=middle;resizable=0;points=[];autosize=1;strokeColor=none;fillColor=none;" vertex="1" parent="1">
          <mxGeometry x="70" y="300" width="60" height="30" as="geometry" />
        </mxCell>
        <mxCell id="zF8jvgZApvR6IqkMXMVD-84" value="" style="shape=table;startSize=0;container=1;collapsible=0;childLayout=tableLayout;" vertex="1" parent="1">
          <mxGeometry x="70" y="460" width="290" height="60" as="geometry" />
        </mxCell>
        <mxCell id="zF8jvgZApvR6IqkMXMVD-85" value="" style="shape=tableRow;horizontal=0;startSize=0;swimlaneHead=0;swimlaneBody=0;strokeColor=inherit;top=0;left=0;bottom=0;right=0;collapsible=0;dropTarget=0;fillColor=none;points=[[0,0.5],[1,0.5]];portConstraint=eastwest;" vertex="1" parent="zF8jvgZApvR6IqkMXMVD-84">
          <mxGeometry width="290" height="30" as="geometry" />
        </mxCell>
        <mxCell id="zF8jvgZApvR6IqkMXMVD-86" value="&lt;u&gt;screeningID&lt;/u&gt;" style="shape=partialRectangle;html=1;whiteSpace=wrap;connectable=0;strokeColor=inherit;overflow=hidden;fillColor=none;top=0;left=0;bottom=0;right=0;pointerEvents=1;" vertex="1" parent="zF8jvgZApvR6IqkMXMVD-85">
          <mxGeometry width="97" height="30" as="geometry">
            <mxRectangle width="97" height="30" as="alternateBounds" />
          </mxGeometry>
        </mxCell>
        <mxCell id="zF8jvgZApvR6IqkMXMVD-87" value="totalCount" style="shape=partialRectangle;html=1;whiteSpace=wrap;connectable=0;strokeColor=inherit;overflow=hidden;fillColor=none;top=0;left=0;bottom=0;right=0;pointerEvents=1;" vertex="1" parent="zF8jvgZApvR6IqkMXMVD-85">
          <mxGeometry x="97" width="96" height="30" as="geometry">
            <mxRectangle width="96" height="30" as="alternateBounds" />
          </mxGeometry>
        </mxCell>
        <mxCell id="zF8jvgZApvR6IqkMXMVD-88" value="movieID" style="shape=partialRectangle;html=1;whiteSpace=wrap;connectable=0;strokeColor=inherit;overflow=hidden;fillColor=none;top=0;left=0;bottom=0;right=0;pointerEvents=1;" vertex="1" parent="zF8jvgZApvR6IqkMXMVD-85">
          <mxGeometry x="193" width="97" height="30" as="geometry">
            <mxRectangle width="97" height="30" as="alternateBounds" />
          </mxGeometry>
        </mxCell>
        <mxCell id="zF8jvgZApvR6IqkMXMVD-89" value="" style="shape=tableRow;horizontal=0;startSize=0;swimlaneHead=0;swimlaneBody=0;strokeColor=inherit;top=0;left=0;bottom=0;right=0;collapsible=0;dropTarget=0;fillColor=none;points=[[0,0.5],[1,0.5]];portConstraint=eastwest;" vertex="1" parent="zF8jvgZApvR6IqkMXMVD-84">
          <mxGeometry y="30" width="290" height="30" as="geometry" />
        </mxCell>
        <mxCell id="zF8jvgZApvR6IqkMXMVD-90" value="INT" style="shape=partialRectangle;html=1;whiteSpace=wrap;connectable=0;strokeColor=inherit;overflow=hidden;fillColor=none;top=0;left=0;bottom=0;right=0;pointerEvents=1;" vertex="1" parent="zF8jvgZApvR6IqkMXMVD-89">
          <mxGeometry width="97" height="30" as="geometry">
            <mxRectangle width="97" height="30" as="alternateBounds" />
          </mxGeometry>
        </mxCell>
        <mxCell id="zF8jvgZApvR6IqkMXMVD-91" value="INT" style="shape=partialRectangle;html=1;whiteSpace=wrap;connectable=0;strokeColor=inherit;overflow=hidden;fillColor=none;top=0;left=0;bottom=0;right=0;pointerEvents=1;" vertex="1" parent="zF8jvgZApvR6IqkMXMVD-89">
          <mxGeometry x="97" width="96" height="30" as="geometry">
            <mxRectangle width="96" height="30" as="alternateBounds" />
          </mxGeometry>
        </mxCell>
        <mxCell id="zF8jvgZApvR6IqkMXMVD-92" value="INT" style="shape=partialRectangle;html=1;whiteSpace=wrap;connectable=0;strokeColor=inherit;overflow=hidden;fillColor=none;top=0;left=0;bottom=0;right=0;pointerEvents=1;" vertex="1" parent="zF8jvgZApvR6IqkMXMVD-89">
          <mxGeometry x="193" width="97" height="30" as="geometry">
            <mxRectangle width="97" height="30" as="alternateBounds" />
          </mxGeometry>
        </mxCell>
        <mxCell id="zF8jvgZApvR6IqkMXMVD-93" value="Screenings" style="text;html=1;align=center;verticalAlign=middle;resizable=0;points=[];autosize=1;strokeColor=none;fillColor=none;" vertex="1" parent="1">
          <mxGeometry x="70" y="430" width="80" height="30" as="geometry" />
        </mxCell>
        <mxCell id="zF8jvgZApvR6IqkMXMVD-94" value="" style="endArrow=none;html=1;rounded=0;dashed=1;dashPattern=1 2;" edge="1" parent="1">
          <mxGeometry relative="1" as="geometry">
            <mxPoint x="280" y="480" as="sourcePoint" />
            <mxPoint x="340" y="480" as="targetPoint" />
          </mxGeometry>
        </mxCell>
        <mxCell id="zF8jvgZApvR6IqkMXMVD-108" value="" style="shape=table;startSize=0;container=1;collapsible=0;childLayout=tableLayout;" vertex="1" parent="1">
          <mxGeometry x="65" y="590" width="335" height="60" as="geometry" />
        </mxCell>
        <mxCell id="zF8jvgZApvR6IqkMXMVD-109" value="" style="shape=tableRow;horizontal=0;startSize=0;swimlaneHead=0;swimlaneBody=0;strokeColor=inherit;top=0;left=0;bottom=0;right=0;collapsible=0;dropTarget=0;fillColor=none;points=[[0,0.5],[1,0.5]];portConstraint=eastwest;" vertex="1" parent="zF8jvgZApvR6IqkMXMVD-108">
          <mxGeometry width="335" height="30" as="geometry" />
        </mxCell>
        <mxCell id="zF8jvgZApvR6IqkMXMVD-110" value="&lt;u&gt;ticketID&lt;/u&gt;" style="shape=partialRectangle;html=1;whiteSpace=wrap;connectable=0;strokeColor=inherit;overflow=hidden;fillColor=none;top=0;left=0;bottom=0;right=0;pointerEvents=1;" vertex="1" parent="zF8jvgZApvR6IqkMXMVD-109">
          <mxGeometry width="63" height="30" as="geometry">
            <mxRectangle width="63" height="30" as="alternateBounds" />
          </mxGeometry>
        </mxCell>
        <mxCell id="zF8jvgZApvR6IqkMXMVD-111" value="price" style="shape=partialRectangle;html=1;whiteSpace=wrap;connectable=0;strokeColor=inherit;overflow=hidden;fillColor=none;top=0;left=0;bottom=0;right=0;pointerEvents=1;" vertex="1" parent="zF8jvgZApvR6IqkMXMVD-109">
          <mxGeometry x="63" width="58" height="30" as="geometry">
            <mxRectangle width="58" height="30" as="alternateBounds" />
          </mxGeometry>
        </mxCell>
        <mxCell id="zF8jvgZApvR6IqkMXMVD-112" value="screeningID" style="shape=partialRectangle;html=1;whiteSpace=wrap;connectable=0;strokeColor=inherit;overflow=hidden;fillColor=none;top=0;left=0;bottom=0;right=0;pointerEvents=1;" vertex="1" parent="zF8jvgZApvR6IqkMXMVD-109">
          <mxGeometry x="121" width="78" height="30" as="geometry">
            <mxRectangle width="78" height="30" as="alternateBounds" />
          </mxGeometry>
        </mxCell>
        <mxCell id="zF8jvgZApvR6IqkMXMVD-113" value="userID" style="shape=partialRectangle;html=1;whiteSpace=wrap;connectable=0;strokeColor=inherit;overflow=hidden;fillColor=none;top=0;left=0;bottom=0;right=0;pointerEvents=1;" vertex="1" parent="zF8jvgZApvR6IqkMXMVD-109">
          <mxGeometry x="199" width="68" height="30" as="geometry">
            <mxRectangle width="68" height="30" as="alternateBounds" />
          </mxGeometry>
        </mxCell>
        <mxCell id="zF8jvgZApvR6IqkMXMVD-114" value="seatID" style="shape=partialRectangle;html=1;whiteSpace=wrap;connectable=0;strokeColor=inherit;overflow=hidden;fillColor=none;top=0;left=0;bottom=0;right=0;pointerEvents=1;" vertex="1" parent="zF8jvgZApvR6IqkMXMVD-109">
          <mxGeometry x="267" width="68" height="30" as="geometry">
            <mxRectangle width="68" height="30" as="alternateBounds" />
          </mxGeometry>
        </mxCell>
        <mxCell id="zF8jvgZApvR6IqkMXMVD-115" value="" style="shape=tableRow;horizontal=0;startSize=0;swimlaneHead=0;swimlaneBody=0;strokeColor=inherit;top=0;left=0;bottom=0;right=0;collapsible=0;dropTarget=0;fillColor=none;points=[[0,0.5],[1,0.5]];portConstraint=eastwest;" vertex="1" parent="zF8jvgZApvR6IqkMXMVD-108">
          <mxGeometry y="30" width="335" height="30" as="geometry" />
        </mxCell>
        <mxCell id="zF8jvgZApvR6IqkMXMVD-116" value="INT" style="shape=partialRectangle;html=1;whiteSpace=wrap;connectable=0;strokeColor=inherit;overflow=hidden;fillColor=none;top=0;left=0;bottom=0;right=0;pointerEvents=1;" vertex="1" parent="zF8jvgZApvR6IqkMXMVD-115">
          <mxGeometry width="63" height="30" as="geometry">
            <mxRectangle width="63" height="30" as="alternateBounds" />
          </mxGeometry>
        </mxCell>
        <mxCell id="zF8jvgZApvR6IqkMXMVD-117" value="FLOAT" style="shape=partialRectangle;html=1;whiteSpace=wrap;connectable=0;strokeColor=inherit;overflow=hidden;fillColor=none;top=0;left=0;bottom=0;right=0;pointerEvents=1;" vertex="1" parent="zF8jvgZApvR6IqkMXMVD-115">
          <mxGeometry x="63" width="58" height="30" as="geometry">
            <mxRectangle width="58" height="30" as="alternateBounds" />
          </mxGeometry>
        </mxCell>
        <mxCell id="zF8jvgZApvR6IqkMXMVD-118" value="INT" style="shape=partialRectangle;html=1;whiteSpace=wrap;connectable=0;strokeColor=inherit;overflow=hidden;fillColor=none;top=0;left=0;bottom=0;right=0;pointerEvents=1;" vertex="1" parent="zF8jvgZApvR6IqkMXMVD-115">
          <mxGeometry x="121" width="78" height="30" as="geometry">
            <mxRectangle width="78" height="30" as="alternateBounds" />
          </mxGeometry>
        </mxCell>
        <mxCell id="zF8jvgZApvR6IqkMXMVD-119" value="INT" style="shape=partialRectangle;html=1;whiteSpace=wrap;connectable=0;strokeColor=inherit;overflow=hidden;fillColor=none;top=0;left=0;bottom=0;right=0;pointerEvents=1;" vertex="1" parent="zF8jvgZApvR6IqkMXMVD-115">
          <mxGeometry x="199" width="68" height="30" as="geometry">
            <mxRectangle width="68" height="30" as="alternateBounds" />
          </mxGeometry>
        </mxCell>
        <mxCell id="zF8jvgZApvR6IqkMXMVD-120" value="INT" style="shape=partialRectangle;html=1;whiteSpace=wrap;connectable=0;strokeColor=inherit;overflow=hidden;fillColor=none;top=0;left=0;bottom=0;right=0;pointerEvents=1;" vertex="1" parent="zF8jvgZApvR6IqkMXMVD-115">
          <mxGeometry x="267" width="68" height="30" as="geometry">
            <mxRectangle width="68" height="30" as="alternateBounds" />
          </mxGeometry>
        </mxCell>
        <mxCell id="zF8jvgZApvR6IqkMXMVD-121" value="Tickets" style="text;html=1;align=center;verticalAlign=middle;resizable=0;points=[];autosize=1;strokeColor=none;fillColor=none;" vertex="1" parent="1">
          <mxGeometry x="65" y="560" width="60" height="30" as="geometry" />
        </mxCell>
        <mxCell id="zF8jvgZApvR6IqkMXMVD-122" value="" style="endArrow=none;html=1;rounded=0;dashed=1;dashPattern=1 2;" edge="1" parent="1">
          <mxGeometry relative="1" as="geometry">
            <mxPoint x="280" y="610" as="sourcePoint" />
            <mxPoint x="330" y="610" as="targetPoint" />
          </mxGeometry>
        </mxCell>
        <mxCell id="zF8jvgZApvR6IqkMXMVD-123" value="" style="endArrow=none;html=1;rounded=0;dashed=1;dashPattern=1 2;" edge="1" parent="1">
          <mxGeometry relative="1" as="geometry">
            <mxPoint x="340" y="610" as="sourcePoint" />
            <mxPoint x="390" y="610" as="targetPoint" />
          </mxGeometry>
        </mxCell>
        <mxCell id="zF8jvgZApvR6IqkMXMVD-125" value="" style="endArrow=none;html=1;rounded=0;dashed=1;dashPattern=1 2;" edge="1" parent="1">
          <mxGeometry relative="1" as="geometry">
            <mxPoint x="190" y="610" as="sourcePoint" />
            <mxPoint x="260" y="610" as="targetPoint" />
          </mxGeometry>
        </mxCell>
        <mxCell id="zF8jvgZApvR6IqkMXMVD-135" value="" style="shape=table;startSize=0;container=1;collapsible=0;childLayout=tableLayout;" vertex="1" parent="1">
          <mxGeometry x="70" y="70" width="290" height="60" as="geometry" />
        </mxCell>
        <mxCell id="zF8jvgZApvR6IqkMXMVD-136" value="" style="shape=tableRow;horizontal=0;startSize=0;swimlaneHead=0;swimlaneBody=0;strokeColor=inherit;top=0;left=0;bottom=0;right=0;collapsible=0;dropTarget=0;fillColor=none;points=[[0,0.5],[1,0.5]];portConstraint=eastwest;" vertex="1" parent="zF8jvgZApvR6IqkMXMVD-135">
          <mxGeometry width="290" height="30" as="geometry" />
        </mxCell>
        <mxCell id="zF8jvgZApvR6IqkMXMVD-137" value="&lt;u&gt;directorID&lt;/u&gt;" style="shape=partialRectangle;html=1;whiteSpace=wrap;connectable=0;strokeColor=inherit;overflow=hidden;fillColor=none;top=0;left=0;bottom=0;right=0;pointerEvents=1;" vertex="1" parent="zF8jvgZApvR6IqkMXMVD-136">
          <mxGeometry width="97" height="30" as="geometry">
            <mxRectangle width="97" height="30" as="alternateBounds" />
          </mxGeometry>
        </mxCell>
        <mxCell id="zF8jvgZApvR6IqkMXMVD-138" value="name" style="shape=partialRectangle;html=1;whiteSpace=wrap;connectable=0;strokeColor=inherit;overflow=hidden;fillColor=none;top=0;left=0;bottom=0;right=0;pointerEvents=1;" vertex="1" parent="zF8jvgZApvR6IqkMXMVD-136">
          <mxGeometry x="97" width="96" height="30" as="geometry">
            <mxRectangle width="96" height="30" as="alternateBounds" />
          </mxGeometry>
        </mxCell>
        <mxCell id="zF8jvgZApvR6IqkMXMVD-139" value="birthYear" style="shape=partialRectangle;html=1;whiteSpace=wrap;connectable=0;strokeColor=inherit;overflow=hidden;fillColor=none;top=0;left=0;bottom=0;right=0;pointerEvents=1;" vertex="1" parent="zF8jvgZApvR6IqkMXMVD-136">
          <mxGeometry x="193" width="97" height="30" as="geometry">
            <mxRectangle width="97" height="30" as="alternateBounds" />
          </mxGeometry>
        </mxCell>
        <mxCell id="zF8jvgZApvR6IqkMXMVD-140" value="" style="shape=tableRow;horizontal=0;startSize=0;swimlaneHead=0;swimlaneBody=0;strokeColor=inherit;top=0;left=0;bottom=0;right=0;collapsible=0;dropTarget=0;fillColor=none;points=[[0,0.5],[1,0.5]];portConstraint=eastwest;" vertex="1" parent="zF8jvgZApvR6IqkMXMVD-135">
          <mxGeometry y="30" width="290" height="30" as="geometry" />
        </mxCell>
        <mxCell id="zF8jvgZApvR6IqkMXMVD-141" value="INT" style="shape=partialRectangle;html=1;whiteSpace=wrap;connectable=0;strokeColor=inherit;overflow=hidden;fillColor=none;top=0;left=0;bottom=0;right=0;pointerEvents=1;" vertex="1" parent="zF8jvgZApvR6IqkMXMVD-140">
          <mxGeometry width="97" height="30" as="geometry">
            <mxRectangle width="97" height="30" as="alternateBounds" />
          </mxGeometry>
        </mxCell>
        <mxCell id="zF8jvgZApvR6IqkMXMVD-142" value="VARCHAR(30)" style="shape=partialRectangle;html=1;whiteSpace=wrap;connectable=0;strokeColor=inherit;overflow=hidden;fillColor=none;top=0;left=0;bottom=0;right=0;pointerEvents=1;" vertex="1" parent="zF8jvgZApvR6IqkMXMVD-140">
          <mxGeometry x="97" width="96" height="30" as="geometry">
            <mxRectangle width="96" height="30" as="alternateBounds" />
          </mxGeometry>
        </mxCell>
        <mxCell id="zF8jvgZApvR6IqkMXMVD-143" value="INT" style="shape=partialRectangle;html=1;whiteSpace=wrap;connectable=0;strokeColor=inherit;overflow=hidden;fillColor=none;top=0;left=0;bottom=0;right=0;pointerEvents=1;" vertex="1" parent="zF8jvgZApvR6IqkMXMVD-140">
          <mxGeometry x="193" width="97" height="30" as="geometry">
            <mxRectangle width="97" height="30" as="alternateBounds" />
          </mxGeometry>
        </mxCell>
        <mxCell id="zF8jvgZApvR6IqkMXMVD-144" value="Directors" style="text;html=1;align=center;verticalAlign=middle;resizable=0;points=[];autosize=1;strokeColor=none;fillColor=none;" vertex="1" parent="1">
          <mxGeometry x="65" y="40" width="70" height="30" as="geometry" />
        </mxCell>
        <mxCell id="zF8jvgZApvR6IqkMXMVD-164" value="" style="shape=table;startSize=0;container=1;collapsible=0;childLayout=tableLayout;" vertex="1" parent="1">
          <mxGeometry x="70" y="710" width="290" height="60" as="geometry" />
        </mxCell>
        <mxCell id="zF8jvgZApvR6IqkMXMVD-165" value="" style="shape=tableRow;horizontal=0;startSize=0;swimlaneHead=0;swimlaneBody=0;strokeColor=inherit;top=0;left=0;bottom=0;right=0;collapsible=0;dropTarget=0;fillColor=none;points=[[0,0.5],[1,0.5]];portConstraint=eastwest;" vertex="1" parent="zF8jvgZApvR6IqkMXMVD-164">
          <mxGeometry width="290" height="30" as="geometry" />
        </mxCell>
        <mxCell id="zF8jvgZApvR6IqkMXMVD-166" value="&lt;u&gt;userID&lt;/u&gt;" style="shape=partialRectangle;html=1;whiteSpace=wrap;connectable=0;strokeColor=inherit;overflow=hidden;fillColor=none;top=0;left=0;bottom=0;right=0;pointerEvents=1;" vertex="1" parent="zF8jvgZApvR6IqkMXMVD-165">
          <mxGeometry width="97" height="30" as="geometry">
            <mxRectangle width="97" height="30" as="alternateBounds" />
          </mxGeometry>
        </mxCell>
        <mxCell id="zF8jvgZApvR6IqkMXMVD-167" value="name" style="shape=partialRectangle;html=1;whiteSpace=wrap;connectable=0;strokeColor=inherit;overflow=hidden;fillColor=none;top=0;left=0;bottom=0;right=0;pointerEvents=1;" vertex="1" parent="zF8jvgZApvR6IqkMXMVD-165">
          <mxGeometry x="97" width="96" height="30" as="geometry">
            <mxRectangle width="96" height="30" as="alternateBounds" />
          </mxGeometry>
        </mxCell>
        <mxCell id="zF8jvgZApvR6IqkMXMVD-168" value="e-mail" style="shape=partialRectangle;html=1;whiteSpace=wrap;connectable=0;strokeColor=inherit;overflow=hidden;fillColor=none;top=0;left=0;bottom=0;right=0;pointerEvents=1;" vertex="1" parent="zF8jvgZApvR6IqkMXMVD-165">
          <mxGeometry x="193" width="97" height="30" as="geometry">
            <mxRectangle width="97" height="30" as="alternateBounds" />
          </mxGeometry>
        </mxCell>
        <mxCell id="zF8jvgZApvR6IqkMXMVD-169" value="" style="shape=tableRow;horizontal=0;startSize=0;swimlaneHead=0;swimlaneBody=0;strokeColor=inherit;top=0;left=0;bottom=0;right=0;collapsible=0;dropTarget=0;fillColor=none;points=[[0,0.5],[1,0.5]];portConstraint=eastwest;" vertex="1" parent="zF8jvgZApvR6IqkMXMVD-164">
          <mxGeometry y="30" width="290" height="30" as="geometry" />
        </mxCell>
        <mxCell id="zF8jvgZApvR6IqkMXMVD-170" value="INT" style="shape=partialRectangle;html=1;whiteSpace=wrap;connectable=0;strokeColor=inherit;overflow=hidden;fillColor=none;top=0;left=0;bottom=0;right=0;pointerEvents=1;" vertex="1" parent="zF8jvgZApvR6IqkMXMVD-169">
          <mxGeometry width="97" height="30" as="geometry">
            <mxRectangle width="97" height="30" as="alternateBounds" />
          </mxGeometry>
        </mxCell>
        <mxCell id="zF8jvgZApvR6IqkMXMVD-171" value="VARCHAR(30)" style="shape=partialRectangle;html=1;whiteSpace=wrap;connectable=0;strokeColor=inherit;overflow=hidden;fillColor=none;top=0;left=0;bottom=0;right=0;pointerEvents=1;" vertex="1" parent="zF8jvgZApvR6IqkMXMVD-169">
          <mxGeometry x="97" width="96" height="30" as="geometry">
            <mxRectangle width="96" height="30" as="alternateBounds" />
          </mxGeometry>
        </mxCell>
        <mxCell id="zF8jvgZApvR6IqkMXMVD-172" value="VARCHAR(30)" style="shape=partialRectangle;html=1;whiteSpace=wrap;connectable=0;strokeColor=inherit;overflow=hidden;fillColor=none;top=0;left=0;bottom=0;right=0;pointerEvents=1;" vertex="1" parent="zF8jvgZApvR6IqkMXMVD-169">
          <mxGeometry x="193" width="97" height="30" as="geometry">
            <mxRectangle width="97" height="30" as="alternateBounds" />
          </mxGeometry>
        </mxCell>
        <mxCell id="zF8jvgZApvR6IqkMXMVD-173" value="Users" style="text;html=1;align=center;verticalAlign=middle;resizable=0;points=[];autosize=1;strokeColor=none;fillColor=none;" vertex="1" parent="1">
          <mxGeometry x="70" y="680" width="50" height="30" as="geometry" />
        </mxCell>
        <mxCell id="zF8jvgZApvR6IqkMXMVD-174" value="" style="shape=table;startSize=0;container=1;collapsible=0;childLayout=tableLayout;" vertex="1" parent="1">
          <mxGeometry x="70" y="830" width="290" height="60" as="geometry" />
        </mxCell>
        <mxCell id="zF8jvgZApvR6IqkMXMVD-175" value="" style="shape=tableRow;horizontal=0;startSize=0;swimlaneHead=0;swimlaneBody=0;strokeColor=inherit;top=0;left=0;bottom=0;right=0;collapsible=0;dropTarget=0;fillColor=none;points=[[0,0.5],[1,0.5]];portConstraint=eastwest;" vertex="1" parent="zF8jvgZApvR6IqkMXMVD-174">
          <mxGeometry width="290" height="30" as="geometry" />
        </mxCell>
        <mxCell id="zF8jvgZApvR6IqkMXMVD-176" value="&lt;u&gt;seatID&lt;/u&gt;" style="shape=partialRectangle;html=1;whiteSpace=wrap;connectable=0;strokeColor=inherit;overflow=hidden;fillColor=none;top=0;left=0;bottom=0;right=0;pointerEvents=1;" vertex="1" parent="zF8jvgZApvR6IqkMXMVD-175">
          <mxGeometry width="97" height="30" as="geometry">
            <mxRectangle width="97" height="30" as="alternateBounds" />
          </mxGeometry>
        </mxCell>
        <mxCell id="zF8jvgZApvR6IqkMXMVD-177" value="ticketID" style="shape=partialRectangle;html=1;whiteSpace=wrap;connectable=0;strokeColor=inherit;overflow=hidden;fillColor=none;top=0;left=0;bottom=0;right=0;pointerEvents=1;" vertex="1" parent="zF8jvgZApvR6IqkMXMVD-175">
          <mxGeometry x="97" width="96" height="30" as="geometry">
            <mxRectangle width="96" height="30" as="alternateBounds" />
          </mxGeometry>
        </mxCell>
        <mxCell id="zF8jvgZApvR6IqkMXMVD-178" value="theaterID" style="shape=partialRectangle;html=1;whiteSpace=wrap;connectable=0;strokeColor=inherit;overflow=hidden;fillColor=none;top=0;left=0;bottom=0;right=0;pointerEvents=1;" vertex="1" parent="zF8jvgZApvR6IqkMXMVD-175">
          <mxGeometry x="193" width="97" height="30" as="geometry">
            <mxRectangle width="97" height="30" as="alternateBounds" />
          </mxGeometry>
        </mxCell>
        <mxCell id="zF8jvgZApvR6IqkMXMVD-179" value="" style="shape=tableRow;horizontal=0;startSize=0;swimlaneHead=0;swimlaneBody=0;strokeColor=inherit;top=0;left=0;bottom=0;right=0;collapsible=0;dropTarget=0;fillColor=none;points=[[0,0.5],[1,0.5]];portConstraint=eastwest;" vertex="1" parent="zF8jvgZApvR6IqkMXMVD-174">
          <mxGeometry y="30" width="290" height="30" as="geometry" />
        </mxCell>
        <mxCell id="zF8jvgZApvR6IqkMXMVD-180" value="INT" style="shape=partialRectangle;html=1;whiteSpace=wrap;connectable=0;strokeColor=inherit;overflow=hidden;fillColor=none;top=0;left=0;bottom=0;right=0;pointerEvents=1;" vertex="1" parent="zF8jvgZApvR6IqkMXMVD-179">
          <mxGeometry width="97" height="30" as="geometry">
            <mxRectangle width="97" height="30" as="alternateBounds" />
          </mxGeometry>
        </mxCell>
        <mxCell id="zF8jvgZApvR6IqkMXMVD-181" value="VARCHAR(30)" style="shape=partialRectangle;html=1;whiteSpace=wrap;connectable=0;strokeColor=inherit;overflow=hidden;fillColor=none;top=0;left=0;bottom=0;right=0;pointerEvents=1;" vertex="1" parent="zF8jvgZApvR6IqkMXMVD-179">
          <mxGeometry x="97" width="96" height="30" as="geometry">
            <mxRectangle width="96" height="30" as="alternateBounds" />
          </mxGeometry>
        </mxCell>
        <mxCell id="zF8jvgZApvR6IqkMXMVD-182" value="VARCHAR(30)" style="shape=partialRectangle;html=1;whiteSpace=wrap;connectable=0;strokeColor=inherit;overflow=hidden;fillColor=none;top=0;left=0;bottom=0;right=0;pointerEvents=1;" vertex="1" parent="zF8jvgZApvR6IqkMXMVD-179">
          <mxGeometry x="193" width="97" height="30" as="geometry">
            <mxRectangle width="97" height="30" as="alternateBounds" />
          </mxGeometry>
        </mxCell>
        <mxCell id="zF8jvgZApvR6IqkMXMVD-183" value="Seats" style="text;html=1;align=center;verticalAlign=middle;resizable=0;points=[];autosize=1;strokeColor=none;fillColor=none;" vertex="1" parent="1">
          <mxGeometry x="70" y="800" width="50" height="30" as="geometry" />
        </mxCell>
        <mxCell id="zF8jvgZApvR6IqkMXMVD-184" value="" style="shape=table;startSize=0;container=1;collapsible=0;childLayout=tableLayout;" vertex="1" parent="1">
          <mxGeometry x="480" y="590" width="310" height="60" as="geometry" />
        </mxCell>
        <mxCell id="zF8jvgZApvR6IqkMXMVD-185" value="" style="shape=tableRow;horizontal=0;startSize=0;swimlaneHead=0;swimlaneBody=0;strokeColor=inherit;top=0;left=0;bottom=0;right=0;collapsible=0;dropTarget=0;fillColor=none;points=[[0,0.5],[1,0.5]];portConstraint=eastwest;" vertex="1" parent="zF8jvgZApvR6IqkMXMVD-184">
          <mxGeometry width="310" height="30" as="geometry" />
        </mxCell>
        <mxCell id="zF8jvgZApvR6IqkMXMVD-186" value="&lt;u&gt;theaterID&lt;/u&gt;" style="shape=partialRectangle;html=1;whiteSpace=wrap;connectable=0;strokeColor=inherit;overflow=hidden;fillColor=none;top=0;left=0;bottom=0;right=0;pointerEvents=1;" vertex="1" parent="zF8jvgZApvR6IqkMXMVD-185">
          <mxGeometry width="78" height="30" as="geometry">
            <mxRectangle width="78" height="30" as="alternateBounds" />
          </mxGeometry>
        </mxCell>
        <mxCell id="zF8jvgZApvR6IqkMXMVD-187" value="totalSeats" style="shape=partialRectangle;html=1;whiteSpace=wrap;connectable=0;strokeColor=inherit;overflow=hidden;fillColor=none;top=0;left=0;bottom=0;right=0;pointerEvents=1;" vertex="1" parent="zF8jvgZApvR6IqkMXMVD-185">
          <mxGeometry x="78" width="77" height="30" as="geometry">
            <mxRectangle width="77" height="30" as="alternateBounds" />
          </mxGeometry>
        </mxCell>
        <mxCell id="zF8jvgZApvR6IqkMXMVD-188" value="uniqueNr" style="shape=partialRectangle;html=1;whiteSpace=wrap;connectable=0;strokeColor=inherit;overflow=hidden;fillColor=none;top=0;left=0;bottom=0;right=0;pointerEvents=1;" vertex="1" parent="zF8jvgZApvR6IqkMXMVD-185">
          <mxGeometry x="155" width="78" height="30" as="geometry">
            <mxRectangle width="78" height="30" as="alternateBounds" />
          </mxGeometry>
        </mxCell>
        <mxCell id="zF8jvgZApvR6IqkMXMVD-189" value="cinemaID" style="shape=partialRectangle;html=1;whiteSpace=wrap;connectable=0;strokeColor=inherit;overflow=hidden;fillColor=none;top=0;left=0;bottom=0;right=0;pointerEvents=1;" vertex="1" parent="zF8jvgZApvR6IqkMXMVD-185">
          <mxGeometry x="233" width="77" height="30" as="geometry">
            <mxRectangle width="77" height="30" as="alternateBounds" />
          </mxGeometry>
        </mxCell>
        <mxCell id="zF8jvgZApvR6IqkMXMVD-190" value="" style="shape=tableRow;horizontal=0;startSize=0;swimlaneHead=0;swimlaneBody=0;strokeColor=inherit;top=0;left=0;bottom=0;right=0;collapsible=0;dropTarget=0;fillColor=none;points=[[0,0.5],[1,0.5]];portConstraint=eastwest;" vertex="1" parent="zF8jvgZApvR6IqkMXMVD-184">
          <mxGeometry y="30" width="310" height="30" as="geometry" />
        </mxCell>
        <mxCell id="zF8jvgZApvR6IqkMXMVD-191" value="INT" style="shape=partialRectangle;html=1;whiteSpace=wrap;connectable=0;strokeColor=inherit;overflow=hidden;fillColor=none;top=0;left=0;bottom=0;right=0;pointerEvents=1;" vertex="1" parent="zF8jvgZApvR6IqkMXMVD-190">
          <mxGeometry width="78" height="30" as="geometry">
            <mxRectangle width="78" height="30" as="alternateBounds" />
          </mxGeometry>
        </mxCell>
        <mxCell id="zF8jvgZApvR6IqkMXMVD-192" value="INT" style="shape=partialRectangle;html=1;whiteSpace=wrap;connectable=0;strokeColor=inherit;overflow=hidden;fillColor=none;top=0;left=0;bottom=0;right=0;pointerEvents=1;" vertex="1" parent="zF8jvgZApvR6IqkMXMVD-190">
          <mxGeometry x="78" width="77" height="30" as="geometry">
            <mxRectangle width="77" height="30" as="alternateBounds" />
          </mxGeometry>
        </mxCell>
        <mxCell id="zF8jvgZApvR6IqkMXMVD-193" value="INT" style="shape=partialRectangle;html=1;whiteSpace=wrap;connectable=0;strokeColor=inherit;overflow=hidden;fillColor=none;top=0;left=0;bottom=0;right=0;pointerEvents=1;" vertex="1" parent="zF8jvgZApvR6IqkMXMVD-190">
          <mxGeometry x="155" width="78" height="30" as="geometry">
            <mxRectangle width="78" height="30" as="alternateBounds" />
          </mxGeometry>
        </mxCell>
        <mxCell id="zF8jvgZApvR6IqkMXMVD-194" value="INT" style="shape=partialRectangle;html=1;whiteSpace=wrap;connectable=0;strokeColor=inherit;overflow=hidden;fillColor=none;top=0;left=0;bottom=0;right=0;pointerEvents=1;" vertex="1" parent="zF8jvgZApvR6IqkMXMVD-190">
          <mxGeometry x="233" width="77" height="30" as="geometry">
            <mxRectangle width="77" height="30" as="alternateBounds" />
          </mxGeometry>
        </mxCell>
        <mxCell id="zF8jvgZApvR6IqkMXMVD-195" value="Theaters" style="text;html=1;align=center;verticalAlign=middle;resizable=0;points=[];autosize=1;strokeColor=none;fillColor=none;" vertex="1" parent="1">
          <mxGeometry x="480" y="560" width="70" height="30" as="geometry" />
        </mxCell>
        <mxCell id="zF8jvgZApvR6IqkMXMVD-196" value="" style="endArrow=none;html=1;rounded=0;dashed=1;dashPattern=1 2;" edge="1" parent="1">
          <mxGeometry relative="1" as="geometry">
            <mxPoint x="720" y="610" as="sourcePoint" />
            <mxPoint x="780" y="610" as="targetPoint" />
          </mxGeometry>
        </mxCell>
        <mxCell id="zF8jvgZApvR6IqkMXMVD-197" value="" style="endArrow=none;html=1;rounded=0;dashed=1;dashPattern=1 2;" edge="1" parent="1">
          <mxGeometry relative="1" as="geometry">
            <mxPoint x="185" y="850" as="sourcePoint" />
            <mxPoint x="245" y="850" as="targetPoint" />
          </mxGeometry>
        </mxCell>
        <mxCell id="zF8jvgZApvR6IqkMXMVD-198" value="" style="endArrow=none;html=1;rounded=0;dashed=1;dashPattern=1 2;" edge="1" parent="1">
          <mxGeometry relative="1" as="geometry">
            <mxPoint x="280" y="850" as="sourcePoint" />
            <mxPoint x="340" y="850" as="targetPoint" />
          </mxGeometry>
        </mxCell>
        <mxCell id="zF8jvgZApvR6IqkMXMVD-199" value="" style="shape=table;startSize=0;container=1;collapsible=0;childLayout=tableLayout;" vertex="1" parent="1">
          <mxGeometry x="480" y="710" width="340" height="60" as="geometry" />
        </mxCell>
        <mxCell id="zF8jvgZApvR6IqkMXMVD-200" value="" style="shape=tableRow;horizontal=0;startSize=0;swimlaneHead=0;swimlaneBody=0;strokeColor=inherit;top=0;left=0;bottom=0;right=0;collapsible=0;dropTarget=0;fillColor=none;points=[[0,0.5],[1,0.5]];portConstraint=eastwest;" vertex="1" parent="zF8jvgZApvR6IqkMXMVD-199">
          <mxGeometry width="340" height="30" as="geometry" />
        </mxCell>
        <mxCell id="zF8jvgZApvR6IqkMXMVD-201" value="&lt;u&gt;cinemaID&lt;/u&gt;" style="shape=partialRectangle;html=1;whiteSpace=wrap;connectable=0;strokeColor=inherit;overflow=hidden;fillColor=none;top=0;left=0;bottom=0;right=0;pointerEvents=1;" vertex="1" parent="zF8jvgZApvR6IqkMXMVD-200">
          <mxGeometry width="72" height="30" as="geometry">
            <mxRectangle width="72" height="30" as="alternateBounds" />
          </mxGeometry>
        </mxCell>
        <mxCell id="zF8jvgZApvR6IqkMXMVD-202" value="name" style="shape=partialRectangle;html=1;whiteSpace=wrap;connectable=0;strokeColor=inherit;overflow=hidden;fillColor=none;top=0;left=0;bottom=0;right=0;pointerEvents=1;" vertex="1" parent="zF8jvgZApvR6IqkMXMVD-200">
          <mxGeometry x="72" width="93" height="30" as="geometry">
            <mxRectangle width="93" height="30" as="alternateBounds" />
          </mxGeometry>
        </mxCell>
        <mxCell id="zF8jvgZApvR6IqkMXMVD-203" value="address" style="shape=partialRectangle;html=1;whiteSpace=wrap;connectable=0;strokeColor=inherit;overflow=hidden;fillColor=none;top=0;left=0;bottom=0;right=0;pointerEvents=1;" vertex="1" parent="zF8jvgZApvR6IqkMXMVD-200">
          <mxGeometry x="165" width="93" height="30" as="geometry">
            <mxRectangle width="93" height="30" as="alternateBounds" />
          </mxGeometry>
        </mxCell>
        <mxCell id="zF8jvgZApvR6IqkMXMVD-204" value="totalTheaters" style="shape=partialRectangle;html=1;whiteSpace=wrap;connectable=0;strokeColor=inherit;overflow=hidden;fillColor=none;top=0;left=0;bottom=0;right=0;pointerEvents=1;" vertex="1" parent="zF8jvgZApvR6IqkMXMVD-200">
          <mxGeometry x="258" width="82" height="30" as="geometry">
            <mxRectangle width="82" height="30" as="alternateBounds" />
          </mxGeometry>
        </mxCell>
        <mxCell id="zF8jvgZApvR6IqkMXMVD-205" value="" style="shape=tableRow;horizontal=0;startSize=0;swimlaneHead=0;swimlaneBody=0;strokeColor=inherit;top=0;left=0;bottom=0;right=0;collapsible=0;dropTarget=0;fillColor=none;points=[[0,0.5],[1,0.5]];portConstraint=eastwest;" vertex="1" parent="zF8jvgZApvR6IqkMXMVD-199">
          <mxGeometry y="30" width="340" height="30" as="geometry" />
        </mxCell>
        <mxCell id="zF8jvgZApvR6IqkMXMVD-206" value="INT" style="shape=partialRectangle;html=1;whiteSpace=wrap;connectable=0;strokeColor=inherit;overflow=hidden;fillColor=none;top=0;left=0;bottom=0;right=0;pointerEvents=1;" vertex="1" parent="zF8jvgZApvR6IqkMXMVD-205">
          <mxGeometry width="72" height="30" as="geometry">
            <mxRectangle width="72" height="30" as="alternateBounds" />
          </mxGeometry>
        </mxCell>
        <mxCell id="zF8jvgZApvR6IqkMXMVD-207" value="VARCHAR(30)" style="shape=partialRectangle;html=1;whiteSpace=wrap;connectable=0;strokeColor=inherit;overflow=hidden;fillColor=none;top=0;left=0;bottom=0;right=0;pointerEvents=1;" vertex="1" parent="zF8jvgZApvR6IqkMXMVD-205">
          <mxGeometry x="72" width="93" height="30" as="geometry">
            <mxRectangle width="93" height="30" as="alternateBounds" />
          </mxGeometry>
        </mxCell>
        <mxCell id="zF8jvgZApvR6IqkMXMVD-208" value="VARCHAR(30)" style="shape=partialRectangle;html=1;whiteSpace=wrap;connectable=0;strokeColor=inherit;overflow=hidden;fillColor=none;top=0;left=0;bottom=0;right=0;pointerEvents=1;" vertex="1" parent="zF8jvgZApvR6IqkMXMVD-205">
          <mxGeometry x="165" width="93" height="30" as="geometry">
            <mxRectangle width="93" height="30" as="alternateBounds" />
          </mxGeometry>
        </mxCell>
        <mxCell id="zF8jvgZApvR6IqkMXMVD-209" value="INT" style="shape=partialRectangle;html=1;whiteSpace=wrap;connectable=0;strokeColor=inherit;overflow=hidden;fillColor=none;top=0;left=0;bottom=0;right=0;pointerEvents=1;" vertex="1" parent="zF8jvgZApvR6IqkMXMVD-205">
          <mxGeometry x="258" width="82" height="30" as="geometry">
            <mxRectangle width="82" height="30" as="alternateBounds" />
          </mxGeometry>
        </mxCell>
        <mxCell id="zF8jvgZApvR6IqkMXMVD-210" value="Cinemas" style="text;html=1;align=center;verticalAlign=middle;resizable=0;points=[];autosize=1;strokeColor=none;fillColor=none;" vertex="1" parent="1">
          <mxGeometry x="480" y="680" width="70" height="30" as="geometry" />
        </mxCell>
        <mxCell id="zF8jvgZApvR6IqkMXMVD-223" value="ScreeningsTheaters" style="text;html=1;align=center;verticalAlign=middle;resizable=0;points=[];autosize=1;strokeColor=none;fillColor=none;" vertex="1" parent="1">
          <mxGeometry x="480" y="430" width="130" height="30" as="geometry" />
        </mxCell>
        <mxCell id="zF8jvgZApvR6IqkMXMVD-224" value="" style="shape=table;startSize=0;container=1;collapsible=0;childLayout=tableLayout;" vertex="1" parent="1">
          <mxGeometry x="480" y="460" width="280" height="60" as="geometry" />
        </mxCell>
        <mxCell id="zF8jvgZApvR6IqkMXMVD-225" value="" style="shape=tableRow;horizontal=0;startSize=0;swimlaneHead=0;swimlaneBody=0;strokeColor=inherit;top=0;left=0;bottom=0;right=0;collapsible=0;dropTarget=0;fillColor=none;points=[[0,0.5],[1,0.5]];portConstraint=eastwest;" vertex="1" parent="zF8jvgZApvR6IqkMXMVD-224">
          <mxGeometry width="280" height="30" as="geometry" />
        </mxCell>
        <mxCell id="zF8jvgZApvR6IqkMXMVD-226" value="&lt;u&gt;screeningTheatrtID&lt;/u&gt;" style="shape=partialRectangle;html=1;whiteSpace=wrap;connectable=0;strokeColor=inherit;overflow=hidden;fillColor=none;top=0;left=0;bottom=0;right=0;pointerEvents=1;" vertex="1" parent="zF8jvgZApvR6IqkMXMVD-225">
          <mxGeometry width="114" height="30" as="geometry">
            <mxRectangle width="114" height="30" as="alternateBounds" />
          </mxGeometry>
        </mxCell>
        <mxCell id="zF8jvgZApvR6IqkMXMVD-227" value="ScreeningID" style="shape=partialRectangle;html=1;whiteSpace=wrap;connectable=0;strokeColor=inherit;overflow=hidden;fillColor=none;top=0;left=0;bottom=0;right=0;pointerEvents=1;" vertex="1" parent="zF8jvgZApvR6IqkMXMVD-225">
          <mxGeometry x="114" width="83" height="30" as="geometry">
            <mxRectangle width="83" height="30" as="alternateBounds" />
          </mxGeometry>
        </mxCell>
        <mxCell id="zF8jvgZApvR6IqkMXMVD-228" value="theaterID" style="shape=partialRectangle;html=1;whiteSpace=wrap;connectable=0;strokeColor=inherit;overflow=hidden;fillColor=none;top=0;left=0;bottom=0;right=0;pointerEvents=1;" vertex="1" parent="zF8jvgZApvR6IqkMXMVD-225">
          <mxGeometry x="197" width="83" height="30" as="geometry">
            <mxRectangle width="83" height="30" as="alternateBounds" />
          </mxGeometry>
        </mxCell>
        <mxCell id="zF8jvgZApvR6IqkMXMVD-229" value="" style="shape=tableRow;horizontal=0;startSize=0;swimlaneHead=0;swimlaneBody=0;strokeColor=inherit;top=0;left=0;bottom=0;right=0;collapsible=0;dropTarget=0;fillColor=none;points=[[0,0.5],[1,0.5]];portConstraint=eastwest;" vertex="1" parent="zF8jvgZApvR6IqkMXMVD-224">
          <mxGeometry y="30" width="280" height="30" as="geometry" />
        </mxCell>
        <mxCell id="zF8jvgZApvR6IqkMXMVD-230" value="INT" style="shape=partialRectangle;html=1;whiteSpace=wrap;connectable=0;strokeColor=inherit;overflow=hidden;fillColor=none;top=0;left=0;bottom=0;right=0;pointerEvents=1;" vertex="1" parent="zF8jvgZApvR6IqkMXMVD-229">
          <mxGeometry width="114" height="30" as="geometry">
            <mxRectangle width="114" height="30" as="alternateBounds" />
          </mxGeometry>
        </mxCell>
        <mxCell id="zF8jvgZApvR6IqkMXMVD-231" value="INT" style="shape=partialRectangle;html=1;whiteSpace=wrap;connectable=0;strokeColor=inherit;overflow=hidden;fillColor=none;top=0;left=0;bottom=0;right=0;pointerEvents=1;" vertex="1" parent="zF8jvgZApvR6IqkMXMVD-229">
          <mxGeometry x="114" width="83" height="30" as="geometry">
            <mxRectangle width="83" height="30" as="alternateBounds" />
          </mxGeometry>
        </mxCell>
        <mxCell id="zF8jvgZApvR6IqkMXMVD-232" value="INT" style="shape=partialRectangle;html=1;whiteSpace=wrap;connectable=0;strokeColor=inherit;overflow=hidden;fillColor=none;top=0;left=0;bottom=0;right=0;pointerEvents=1;" vertex="1" parent="zF8jvgZApvR6IqkMXMVD-229">
          <mxGeometry x="197" width="83" height="30" as="geometry">
            <mxRectangle width="83" height="30" as="alternateBounds" />
          </mxGeometry>
        </mxCell>
        <mxCell id="zF8jvgZApvR6IqkMXMVD-233" value="" style="endArrow=none;html=1;rounded=0;dashed=1;dashPattern=1 2;" edge="1" parent="1">
          <mxGeometry relative="1" as="geometry">
            <mxPoint x="600" y="480" as="sourcePoint" />
            <mxPoint x="660" y="480" as="targetPoint" />
          </mxGeometry>
        </mxCell>
        <mxCell id="zF8jvgZApvR6IqkMXMVD-234" value="" style="endArrow=none;html=1;rounded=0;dashed=1;dashPattern=1 2;" edge="1" parent="1">
          <mxGeometry relative="1" as="geometry">
            <mxPoint x="680" y="480" as="sourcePoint" />
            <mxPoint x="740" y="480" as="targetPoint" />
          </mxGeometry>
        </mxCell>
        <mxCell id="zF8jvgZApvR6IqkMXMVD-243" value="" style="curved=1;endArrow=classic;html=1;rounded=0;entryX=0;entryY=0.5;entryDx=0;entryDy=0;" edge="1" parent="1" target="zF8jvgZApvR6IqkMXMVD-71">
          <mxGeometry width="50" height="50" relative="1" as="geometry">
            <mxPoint x="620" y="80" as="sourcePoint" />
            <mxPoint x="10" y="160" as="targetPoint" />
            <Array as="points">
              <mxPoint x="610" y="50" />
              <mxPoint x="520" y="10" />
              <mxPoint x="350" />
              <mxPoint x="140" />
              <mxPoint x="40" y="30" />
              <mxPoint x="20" y="130" />
              <mxPoint x="20" y="270" />
            </Array>
          </mxGeometry>
        </mxCell>
        <mxCell id="zF8jvgZApvR6IqkMXMVD-244" value="" style="curved=1;endArrow=classic;html=1;rounded=0;entryX=0;entryY=0.5;entryDx=0;entryDy=0;" edge="1" parent="1" target="zF8jvgZApvR6IqkMXMVD-71">
          <mxGeometry width="50" height="50" relative="1" as="geometry">
            <mxPoint x="645" y="220" as="sourcePoint" />
            <mxPoint x="60" y="505" as="targetPoint" />
            <Array as="points">
              <mxPoint x="630" y="220" />
              <mxPoint x="520" y="180" />
              <mxPoint x="385" y="180" />
              <mxPoint x="265" y="170" />
              <mxPoint x="170" y="170" />
              <mxPoint x="90" y="160" />
              <mxPoint x="60" y="160" />
              <mxPoint x="20" y="180" />
              <mxPoint x="10" y="200" />
              <mxPoint x="10" y="290" />
              <mxPoint x="10" y="430" />
            </Array>
          </mxGeometry>
        </mxCell>
        <mxCell id="zF8jvgZApvR6IqkMXMVD-245" value="" style="curved=1;endArrow=classic;html=1;rounded=0;exitX=0.861;exitY=0.967;exitDx=0;exitDy=0;exitPerimeter=0;entryX=0.186;entryY=1.133;entryDx=0;entryDy=0;entryPerimeter=0;" edge="1" parent="1" source="zF8jvgZApvR6IqkMXMVD-62" target="zF8jvgZApvR6IqkMXMVD-27">
          <mxGeometry width="50" height="50" relative="1" as="geometry">
            <mxPoint x="690" y="490" as="sourcePoint" />
            <mxPoint x="740" y="440" as="targetPoint" />
            <Array as="points">
              <mxPoint x="580" y="300" />
              <mxPoint x="450" y="300" />
            </Array>
          </mxGeometry>
        </mxCell>
        <mxCell id="zF8jvgZApvR6IqkMXMVD-246" value="" style="curved=1;endArrow=classic;html=1;rounded=0;exitX=0.836;exitY=0.967;exitDx=0;exitDy=0;exitPerimeter=0;entryX=0.186;entryY=1.133;entryDx=0;entryDy=0;entryPerimeter=0;" edge="1" parent="1" source="zF8jvgZApvR6IqkMXMVD-37">
          <mxGeometry width="50" height="50" relative="1" as="geometry">
            <mxPoint x="717" y="145" as="sourcePoint" />
            <mxPoint x="120" y="130" as="targetPoint" />
            <Array as="points">
              <mxPoint x="570" y="160" />
              <mxPoint x="510" y="160" />
              <mxPoint x="446" y="160" />
            </Array>
          </mxGeometry>
        </mxCell>
        <mxCell id="zF8jvgZApvR6IqkMXMVD-247" value="" style="curved=1;endArrow=classic;html=1;rounded=0;entryX=0.203;entryY=0;entryDx=0;entryDy=0;entryPerimeter=0;" edge="1" parent="1">
          <mxGeometry width="50" height="50" relative="1" as="geometry">
            <mxPoint x="386.13" y="650" as="sourcePoint" />
            <mxPoint x="134.9999999999999" y="830" as="targetPoint" />
            <Array as="points">
              <mxPoint x="376.13" y="650" />
              <mxPoint x="376.13" y="690" />
              <mxPoint x="386.13" y="720" />
              <mxPoint x="386.13" y="750" />
              <mxPoint x="376.13" y="780" />
              <mxPoint x="290" y="780" />
              <mxPoint x="220" y="790" />
              <mxPoint x="180" y="790" />
              <mxPoint x="135" y="800" />
            </Array>
          </mxGeometry>
        </mxCell>
        <mxCell id="zF8jvgZApvR6IqkMXMVD-249" value="&amp;nbsp; &amp;nbsp; &amp;nbsp; &amp;nbsp; &amp;nbsp; &amp;nbsp; &amp;nbsp; &amp;nbsp; &amp;nbsp; &amp;nbsp; &amp;nbsp; &amp;nbsp; &amp;nbsp; &amp;nbsp; &amp;nbsp; &amp;nbsp; &amp;nbsp;" style="text;html=1;align=center;verticalAlign=middle;resizable=0;points=[];autosize=1;strokeColor=none;fillColor=none;" vertex="1" parent="1">
          <mxGeometry x="-80" y="-40" width="130" height="30" as="geometry" />
        </mxCell>
        <mxCell id="zF8jvgZApvR6IqkMXMVD-250" value="&amp;nbsp; &amp;nbsp; &amp;nbsp; &amp;nbsp; &amp;nbsp; &amp;nbsp; &amp;nbsp; &amp;nbsp; &amp;nbsp; &amp;nbsp; &amp;nbsp; &amp;nbsp; &amp;nbsp; &amp;nbsp; &amp;nbsp; &amp;nbsp; &amp;nbsp; &amp;nbsp; &amp;nbsp;" style="text;html=1;align=center;verticalAlign=middle;resizable=0;points=[];autosize=1;strokeColor=none;fillColor=none;" vertex="1" parent="1">
          <mxGeometry x="-95" y="-52" width="150" height="30" as="geometry" />
        </mxCell>
        <mxCell id="zF8jvgZApvR6IqkMXMVD-252" value="" style="curved=1;endArrow=classic;html=1;rounded=0;" edge="1" parent="1">
          <mxGeometry width="50" height="50" relative="1" as="geometry">
            <mxPoint x="305" y="460" as="sourcePoint" />
            <mxPoint x="100" y="390" as="targetPoint" />
            <Array as="points">
              <mxPoint x="240" y="440" />
              <mxPoint x="190" y="430" />
              <mxPoint x="140" y="420" />
            </Array>
          </mxGeometry>
        </mxCell>
        <mxCell id="zF8jvgZApvR6IqkMXMVD-253" value="" style="curved=1;endArrow=classic;html=1;rounded=0;" edge="1" parent="1">
          <mxGeometry width="50" height="50" relative="1" as="geometry">
            <mxPoint x="220" y="590" as="sourcePoint" />
            <mxPoint x="112.5" y="520" as="targetPoint" />
            <Array as="points">
              <mxPoint x="170" y="570" />
              <mxPoint x="152.5" y="550" />
            </Array>
          </mxGeometry>
        </mxCell>
        <mxCell id="zF8jvgZApvR6IqkMXMVD-254" value="" style="curved=1;endArrow=classic;html=1;rounded=0;entryX=0.207;entryY=0;entryDx=0;entryDy=0;entryPerimeter=0;" edge="1" parent="1" target="zF8jvgZApvR6IqkMXMVD-165">
          <mxGeometry width="50" height="50" relative="1" as="geometry">
            <mxPoint x="300" y="650" as="sourcePoint" />
            <mxPoint x="200" y="710" as="targetPoint" />
            <Array as="points">
              <mxPoint x="260" y="660" />
              <mxPoint x="210" y="660" />
              <mxPoint x="160" y="670" />
            </Array>
          </mxGeometry>
        </mxCell>
        <mxCell id="zF8jvgZApvR6IqkMXMVD-256" value="" style="curved=1;endArrow=classic;html=1;rounded=0;exitX=0.094;exitY=1.033;exitDx=0;exitDy=0;exitPerimeter=0;entryX=-0.006;entryY=0.733;entryDx=0;entryDy=0;entryPerimeter=0;" edge="1" parent="1" target="zF8jvgZApvR6IqkMXMVD-185">
          <mxGeometry width="50" height="50" relative="1" as="geometry">
            <mxPoint x="305.87" y="890" as="sourcePoint" />
            <mxPoint x="470" y="610" as="targetPoint" />
            <Array as="points">
              <mxPoint x="330" y="910" />
              <mxPoint x="360" y="900" />
              <mxPoint x="390" y="880" />
              <mxPoint x="450" y="620" />
            </Array>
          </mxGeometry>
        </mxCell>
        <mxCell id="zF8jvgZApvR6IqkMXMVD-257" value="" style="curved=1;endArrow=classic;html=1;rounded=0;exitX=0.094;exitY=1.033;exitDx=0;exitDy=0;exitPerimeter=0;entryX=0.9;entryY=0.967;entryDx=0;entryDy=0;entryPerimeter=0;" edge="1" parent="1" target="zF8jvgZApvR6IqkMXMVD-210">
          <mxGeometry width="50" height="50" relative="1" as="geometry">
            <mxPoint x="750" y="650" as="sourcePoint" />
            <mxPoint x="660" y="900" as="targetPoint" />
            <Array as="points">
              <mxPoint x="710" y="670" />
              <mxPoint x="670" y="670" />
              <mxPoint x="610" y="670" />
              <mxPoint x="580" y="680" />
            </Array>
          </mxGeometry>
        </mxCell>
        <mxCell id="zF8jvgZApvR6IqkMXMVD-258" value="" style="curved=1;endArrow=classic;html=1;rounded=0;exitX=0.094;exitY=1.033;exitDx=0;exitDy=0;exitPerimeter=0;entryX=0.886;entryY=0.933;entryDx=0;entryDy=0;entryPerimeter=0;" edge="1" parent="1" target="zF8jvgZApvR6IqkMXMVD-195">
          <mxGeometry width="50" height="50" relative="1" as="geometry">
            <mxPoint x="727" y="521" as="sourcePoint" />
            <mxPoint x="520" y="580" as="targetPoint" />
            <Array as="points">
              <mxPoint x="687" y="541" />
              <mxPoint x="647" y="541" />
              <mxPoint x="587" y="541" />
              <mxPoint x="557" y="551" />
            </Array>
          </mxGeometry>
        </mxCell>
        <mxCell id="zF8jvgZApvR6IqkMXMVD-259" value="" style="curved=1;endArrow=classic;html=1;rounded=0;exitX=0.479;exitY=1.033;exitDx=0;exitDy=0;exitPerimeter=0;entryX=0.255;entryY=0.933;entryDx=0;entryDy=0;entryPerimeter=0;" edge="1" parent="1" source="zF8jvgZApvR6IqkMXMVD-229" target="zF8jvgZApvR6IqkMXMVD-89">
          <mxGeometry width="50" height="50" relative="1" as="geometry">
            <mxPoint x="610" y="530" as="sourcePoint" />
            <mxPoint x="147.5" y="515" as="targetPoint" />
            <Array as="points">
              <mxPoint x="510" y="555" />
              <mxPoint x="287.5" y="565" />
              <mxPoint x="237.5" y="555" />
              <mxPoint x="187.5" y="545" />
            </Array>
          </mxGeometry>
        </mxCell>
        <mxCell id="zF8jvgZApvR6IqkMXMVD-260" value="" style="curved=1;endArrow=classic;html=1;rounded=0;entryX=0;entryY=0.5;entryDx=0;entryDy=0;" edge="1" parent="1" target="zF8jvgZApvR6IqkMXMVD-109">
          <mxGeometry width="50" height="50" relative="1" as="geometry">
            <mxPoint x="220" y="890" as="sourcePoint" />
            <mxPoint x="-250" y="890" as="targetPoint" />
            <Array as="points">
              <mxPoint x="110" y="910" />
              <mxPoint x="40" y="910" />
              <mxPoint x="40" y="810" />
              <mxPoint x="30" y="690" />
            </Array>
          </mxGeometry>
        </mxCell>
        <mxCell id="zF8jvgZApvR6IqkMXMVD-261" value="&amp;nbsp; &amp;nbsp; &amp;nbsp; &amp;nbsp; &amp;nbsp; &amp;nbsp; &amp;nbsp; &amp;nbsp; &amp;nbsp; &amp;nbsp; &amp;nbsp; &amp;nbsp; &amp;nbsp; &amp;nbsp; &amp;nbsp;&amp;nbsp;&lt;br&gt;&amp;nbsp; &amp;nbsp; &amp;nbsp; &amp;nbsp; &amp;nbsp; &amp;nbsp; &amp;nbsp; &amp;nbsp; &amp;nbsp; &amp;nbsp; &amp;nbsp; &amp;nbsp; &amp;nbsp; &amp;nbsp; &amp;nbsp; &amp;nbsp; &amp;nbsp; &amp;nbsp; &amp;nbsp; &amp;nbsp; &amp;nbsp; &amp;nbsp; &amp;nbsp;&lt;br&gt;&lt;br&gt;&lt;br&gt;" style="text;html=1;align=center;verticalAlign=middle;resizable=0;points=[];autosize=1;strokeColor=none;fillColor=none;" vertex="1" parent="1">
          <mxGeometry x="715" y="878" width="170" height="70" as="geometry" />
        </mxCell>
      </root>
    </mxGraphModel>
  </diagram>
</mxfile>
